<svg xmlns="http://www.w3.org/2000/svg" viewBox="0 0 512 512"><g data-name="Note Book"><path d="M85.333 298.667a64.07 64.07 0 0 1-64-64 21.333 21.333 0 1 1 42.667 0A21.354 21.354 0 0 0 85.333 256a21.333 21.333 0 1 1 0 42.667zM85.333 426.667a64.07 64.07 0 0 1-64-64 21.333 21.333 0 1 1 42.667 0A21.354 21.354 0 0 0 85.333 384a21.333 21.333 0 1 1 0 42.667zM85.333 170.667a64.07 64.07 0 0 1-64-64 21.333 21.333 0 1 1 42.667 0A21.354 21.354 0 0 0 85.333 128a21.333 21.333 0 1 1 0 42.667z" style="fill:#cdd4df"/><rect x="64" y="21.333" width="384" height="469.333" rx="42.667" ry="42.667" style="fill:#33527d"/><rect x="256" y="448" width="149.333" height="42.667" rx="21.333" ry="21.333" style="fill:#163969"/><rect x="64" y="42.667" width="384" height="426.667" rx="42.667" ry="42.667" style="fill:gold"/><rect x="170.667" y="426.667" width="234.667" height="42.667" rx="21.333" ry="21.333" style="fill:#ffbe00"/><path d="M250.595 22.854 459.24 77.578a42.667 42.667 0 0 1 29.907 52.407L399.145 459.24a42.667 42.667 0 0 1-52.407 29.907l-208.644-54.724a42.667 42.667 0 0 1-29.907-52.407L198.188 52.76a42.667 42.667 0 0 1 52.407-29.907z" style="fill:#dfe5ff"/><rect x="256" y="426.667" width="149.333" height="42.667" rx="21.333" ry="21.333" style="fill:#b8c2ff"/><rect x="426.667" y="85.333" width="42.667" height="128" rx="21.333" ry="21.333" style="fill:#b8c2ff"/><rect x="64" y="42.667" width="384" height="405.333" rx="42.667" ry="42.667" style="fill:#ffffc5"/><rect x="64" y="21.333" width="384" height="405.333" rx="42.667" ry="42.667" style="fill:#33527d"/><rect x="405.333" y="85.333" width="21.333" height="277.333" rx="10.667" ry="10.667" style="fill:#5e7599"/><rect x="64" y="213.333" width="42.667" height="85.333" rx="21.333" ry="21.333" style="fill:#163969"/><rect x="64" y="85.333" width="42.667" height="85.333" rx="21.333" ry="21.333" style="fill:#163969"/><rect x="64" y="341.333" width="42.667" height="64" rx="21.333" ry="21.333" style="fill:#163969"/><path d="M106.667 426.667h298.868l.03-.001h.135l.039-.001h.067l.03-.001h.038l.03-.001h.037l.031-.001h.036l.032-.001h.035l.032-.001h.036l.032-.001.035-.001h.032l.035-.002h.032l.037-.001h.03l.035-.002h.034l.033-.001.033-.001.036-.001.031-.001.036-.001.031-.001.033-.001.036-.001.025-.001.04-.001.032-.001.056-.002.046-.002.026-.001.04-.001.035-.002.032-.001.032-.001.035-.002.03-.001.038-.002h.03l.036-.002.032-.002.035-.002.032-.001.035-.002.03-.001.038-.002.03-.001.035-.002.033-.002.034-.002.032-.001.036-.002.03-.002.037-.002.03-.001.035-.002.032-.002.037-.002.03-.002.036-.002.03-.002.036-.002.032-.002.032-.002.035-.002.031-.002.035-.003.03-.002.037-.002.034-.002.031-.003.039-.002.035-.003.058-.004.025-.001.042-.003.029-.003.037-.002.034-.003.031-.002.037-.003.03-.002.032-.003.035-.003.033-.002.033-.003.032-.003.035-.002.032-.003.034-.003.03-.002.036-.003.032-.003.033-.003.034-.003.031-.003.036-.003.03-.003.035-.003.032-.003.034-.003.033-.003.032-.003.034-.003.033-.003.034-.003.03-.003.036-.004.032-.003.029-.003.037-.003.024-.003.043-.004.01-.001.054-.006.017-.002.22-.023.024-.002.039-.005.026-.003.039-.004.026-.003.039-.004.027-.003.036-.005.03-.003.034-.004.032-.004.034-.004.032-.003.033-.004.032-.004.033-.004.033-.004.032-.004.032-.004.034-.004.032-.004.035-.005.028-.003.037-.005.03-.004.034-.004.03-.004.035-.005.031-.004.035-.004.03-.004.035-.005.03-.004.035-.005.03-.004.035-.004.027-.004.039-.006.016-.002.159-.022.017-.003.04-.005.025-.004.037-.005.028-.004.038-.006.026-.004.04-.006.024-.003.041-.007.024-.003.04-.006.024-.004.042-.006.022-.004.04-.006.026-.004.04-.006.024-.004.038-.006.028-.004.038-.006.025-.004.039-.007.025-.004.04-.006.024-.004.04-.006.024-.004.042-.007.021-.004.04-.007.027-.004.039-.007.024-.004.039-.006.025-.005.041-.007.012-.002.051-.009.008-.001.298-.053.01-.002.041-.007.026-.005.04-.007.022-.004.04-.008.026-.005.037-.007.025-.004.04-.008.025-.005.039-.007.023-.004.04-.008.025-.005.038-.007.026-.005.036-.007.029-.006.036-.007.026-.005.038-.008.026-.005.038-.008.023-.004.04-.008.023-.005.043-.009.014-.002.05-.01.01-.003.054-.01v-.001l.062-.013h.003l.37-.079.053-.012.01-.002.044-.01.021-.004.04-.01.023-.004.043-.01.02-.004.044-.01.018-.004.043-.01.02-.004.043-.01.02-.005.043-.01.018-.004.045-.01.02-.004.042-.01.02-.005.043-.01.02-.005.042-.01.018-.004.045-.01.018-.005.044-.01.02-.005.043-.01.017-.005.045-.01.015-.004.049-.012.006-.002.055-.013.007-.002.478-.12.008-.003.055-.014.006-.001.053-.014.01-.003.052-.013.008-.003.05-.013.014-.004.048-.012.013-.004.05-.013.011-.003.05-.013.011-.003.05-.014.013-.003.048-.014.011-.003.051-.014.01-.002.053-.015h.003l.059-.017c.222-.062.443-.125.664-.19h.002l.052-.016.01-.003.051-.016.01-.002.05-.015.01-.004.052-.015.009-.003.05-.015.01-.003.054-.016.004-.002.055-.016.006-.002.056-.017.003-.001.057-.018h.003c.28-.087.556-.176.833-.268l.059-.02h.001l.056-.02.005-.001.056-.019h.002l.057-.02.004-.001.054-.019.006-.002.052-.017.009-.004.051-.017.007-.003.053-.018.007-.002.051-.018.01-.003.05-.017.01-.004.051-.018.003-.001q.411-.144.819-.297h.001l.054-.02.006-.003.055-.02.002-.002.057-.021h.001l.114-.044.005-.002.055-.021.059-.022q1.22-.472 2.404-1.015a42.673 42.673 0 0 0 8.402-5.102l.004-.003.045-.035.002-.002.046-.036.003-.002.047-.037.047-.037.002-.002q.48-.377.949-.768l.004-.004.044-.036.003-.003.043-.036.005-.004.043-.037.002-.001.044-.037.005-.004.043-.037.002-.002.044-.037.005-.004.042-.035.005-.005.04-.035.009-.006q.275-.235.546-.475l.004-.003.043-.038.002-.003.042-.037.005-.004.04-.035.007-.007.035-.032.013-.011.035-.031.01-.01.036-.032.01-.009.036-.032.01-.01.036-.031.01-.01.037-.033.007-.006.04-.036.004-.004.04-.037.007-.006.038-.035.01-.009.036-.033.007-.006.302-.28.007-.007.04-.037.005-.005.04-.038.005-.004.04-.038.005-.004.035-.034.01-.01.036-.034.01-.008.035-.034.008-.009.037-.034.009-.009.033-.031.013-.013.033-.031.01-.011.034-.032.012-.011.034-.033.01-.01.032-.032.013-.012.033-.031.012-.012.032-.031.011-.011.035-.034.006-.006.037-.036.01-.011.035-.034.003-.002c.1-.099.2-.197.299-.297l.003-.004.04-.04.004-.003.035-.036.009-.009.035-.035.008-.008.033-.034.012-.012.031-.031.013-.013.03-.03.014-.015.03-.03.013-.014.028-.029.017-.018.026-.026.017-.018.027-.027.016-.017.028-.029.014-.014.03-.03.015-.016.027-.03.015-.014.028-.03.015-.015.029-.03.012-.014.03-.031.014-.014.03-.032.009-.01.034-.035.006-.007.11-.115.01-.012.022-.023.022-.023.02-.022.023-.024.02-.021.022-.025.02-.022.023-.024.02-.02.023-.026.02-.022.022-.024.02-.021.022-.024.021-.024.022-.023.02-.022.021-.024.022-.023.021-.023.02-.022.023-.025.02-.022.023-.025.018-.02.024-.027.018-.02.026-.03.015-.015.028-.032.015-.015.028-.033.013-.014.03-.034.012-.013.036-.04.005-.006.034-.038.009-.01.167-.19.009-.01.033-.038.008-.009.033-.038.01-.011.032-.037.01-.012.03-.034.015-.017.027-.032.013-.014.028-.033.013-.015.029-.034.012-.014.028-.032.014-.017.028-.033.012-.014.03-.034.01-.013.031-.036.01-.013.03-.033.012-.016.03-.034.01-.013.031-.037.01-.01.033-.04.007-.009.034-.04.007-.009.037-.044.002-.004c.096-.114.19-.229.285-.345l.001-.002.04-.048.04-.049.001-.002.038-.047.004-.004.035-.043.008-.01.032-.04.007-.009.033-.041.006-.009.034-.041.005-.008.034-.042.007-.008.034-.043.004-.006.036-.045.004-.004.036-.046.003-.004.035-.045.005-.006c.21-.268.418-.539.622-.811v-.001a42.449 42.449 0 0 0 8.374-22.551A10.667 10.667 0 0 0 438 375.64q-.38-.026-.756-.026a10.667 10.667 0 0 0-10.63 9.921 21.38 21.38 0 0 1-21.28 19.798H106.667A21.358 21.358 0 0 1 85.333 384v-9.085a10.667 10.667 0 1 0-21.333 0V384a42.666 42.666 0 0 0 42.667 42.667z" style="fill:#163969"/><circle cx="138.667" cy="96" r="32" style="fill:#002755"/><circle cx="138.667" cy="224" r="32" style="fill:#002755"/><circle cx="138.667" cy="352" r="32" style="fill:#002755"/><rect x="277.333" y="341.333" width="106.667" height="42.667" rx="21.333" ry="21.333" style="fill:#dfe5ff"/><path d="M128 128a21.328 21.328 0 0 1-21.333-21.333 21.333 21.333 0 1 0-42.667 0 21.333 21.333 0 0 1-42.667 0 64 64 0 0 1 128 0A21.328 21.328 0 0 1 128 128z" style="fill:#cdd4df"/><path d="M85.333 42.667h-.405l-.022.001h-.094l-.088.002h-.115l-.09.002h-.024l-.089.001h-.008l-.085.002h-.02l-.09.001h-.016l-.078.002h-.02L84 42.68h-.02l-.079.002h-.015l-.088.003h-.023l-.088.003h-.01l-.083.002h-.022l-.09.003h-.013l-.083.003h-.016l-.09.003h-.018l-.084.003h-.01l-.093.004h-.018l-.09.004h-.002l-.09.003-.022.001-.09.004h-.008l-.085.003-.02.001-.089.004h-.017l-.077.004h-.02l-.088.005h-.02l-.08.005h-.014l-.087.004-.024.002-.086.004h-.013l-.08.005h-.021l-.088.006h-.018l-.078.005h-.018l-.089.006h-.019l-.08.006h-.013l-.089.006h-.02l-.085.006h-.01l-.085.006-.024.001-.09.006h-.006l-.085.006-.02.002-.087.005-.019.002-.076.005-.02.001-.086.006-.021.002-.081.006h-.01l-.088.007-.023.002-.087.006-.013.001-.079.006-.022.002-.086.007-.018.001-.077.007-.018.001-.086.007-.024.002-.076.006-.014.002-.087.007-.024.002-.083.007-.009.001-.084.007-.024.003-.087.007-.014.002-.076.007-.023.002-.086.008-.02.002-.073.007-.02.002-.085.008-.022.002-.08.008h-.012l-.084.01-.028.002-.081.008-.021.002-.07.008-.025.002-.084.009-.022.002-.072.008-.02.002-.083.009-.028.003-.07.008-.017.001-.084.01-.026.003-.086.01h-.006l-.082.01-.026.002-.082.01-.021.002-.069.008-.025.003-.082.01-.025.003-.068.008-.023.003-.083.01-.025.003-.076.01-.012.001-.085.01-.025.004-.083.01-.02.003-.07.009-.025.003-.084.01-.02.004-.07.009-.023.003-.081.01-.028.004-.068.01-.02.002-.08.011-.03.004-.078.011-.02.003-.068.01-.033.004-.076.01-.03.005-.058.008-.032.005-.077.01-.03.005-.06.01-.027.003-.078.011-.033.005-.061.01-.04.005-.06.01-.037.005-.062.01-.046.007-.05.007-.036.006-.073.011-.036.006-.053.008-.034.006-.074.011-.035.006-.057.009-.032.005-.071.012-.033.005-.068.011-.036.006-.057.01-.036.006-.074.012-.032.005-.052.01-.037.005-.072.013-.035.006-.051.008-.05.009-.058.01-.039.007-.051.009-.05.009-.054.009-.037.007-.058.01-.05.009-.05.009-.036.006-.071.013-.04.008-.045.008-.037.007-.07.013-.04.007-.05.01-.048.008-.058.011-.037.007-.053.01-.055.01-.044.01-.042.007-.066.013-.042.008-.045.009-.039.007-.07.014-.04.008-.042.008-.06.012-.048.01-.043.008-.04.009-.072.014-.035.007-.047.01-.041.008-.068.014-.036.007-.045.01-.065.013-.044.01-.041.008-.053.011-.055.012-.043.009-.043.009-.06.013-.044.01-.044.009-.039.008-.07.015-.037.008-.046.01-.046.01-.063.014-.036.008-.044.01-.066.014-.043.01-.037.008-.072.016-.038.009-.045.01-.035.008-.073.017-.037.008-.043.01-.044.01-.069.016-.031.008-.066.015-.045.01-.048.012-.03.007-.077.018-.033.008-.047.011-.038.009-.067.016-.038.01-.047.01-.033.009-.077.018-.03.008-.049.012-.044.01-.062.016-.038.009-.066.016-.04.01-.047.012-.032.008-.08.02-.029.008-.048.012-.03.007-.08.02-.03.008-.049.013-.017.004-.094.024-.026.007-.094.025-.016.004-.047.012-.035.01-.062.016-.046.012-.043.011-.038.01-.07.019-.035.01-.046.011-.035.01-.074.02-.03.008-.05.013-.018.005-.09.025-.029.008-.088.024-.02.006-.05.013-.027.008-.083.023-.027.008-.049.013-.027.008-.083.023-.026.007-.051.015-.005.001-.108.03-.018.006-.167.048-.015.005-.17.049-.009.002-.104.031-.015.004-.168.05-.015.004-.169.05-.012.005-.172.052-.007.002-.114.034-.002.001-.06.018-.002.001a71.9 71.9 0 0 0-.475.148l-.009.003c-.098.03-.194.062-.293.093h-.001l-.173.056-.01.004-.17.055-.011.004-.17.056-.008.003-.107.035-.01.003c-.057.02-.116.04-.174.058l-.003.001-.176.06h-.001l-.474.164A64.195 64.195 0 0 0 37.757 63.9l-.002.002-.321.36-.009.01-.115.13-.007.009-.115.13-.009.01a6.74 6.74 0 0 0-.067.077l-.01.011-.038.043-.003.005-.075.085-.005.006-.112.13-.012.014-.108.126-.016.018-.06.07-.012.015-.033.038-.017.02-.058.067-.015.018-.032.039-.018.02-.053.063-.019.023-.031.036-.026.031-.043.052-.024.028-.04.049-.029.033-.028.034-.026.032-.037.043-.03.037-.028.033-.026.032-.042.05-.024.029-.029.036-.034.04-.033.04-.026.032-.024.03-.044.053-.024.03-.028.035-.034.041-.034.042-.023.028-.036.044-.024.03-.039.048-.018.022-.046.057-.02.025-.036.044-.017.022-.048.06-.017.021-.039.049-.013.017-.049.06-.018.022-.043.055-.01.014-.047.058-.018.023-.05.062-.007.01-.045.057-.014.018-.051.064-.01.012-.046.06-.01.012a4.606 4.606 0 0 0-.052.068l-.009.01-.05.067-.004.004a4.717 4.717 0 0 0-.053.068l-.01.014-.108.14-.009.01-.053.07-.005.006-.052.069-.004.004-.056.073-.004.007-.112.146-.004.005-.111.148-.005.006-.11.146-.006.008-.17.228q-1.267 1.71-2.422 3.506a10.667 10.667 0 0 0 17.954 11.522A42.579 42.579 0 0 1 85.333 64a10.667 10.667 0 1 0 0-21.333z" style="fill:#eff2ff"/><path d="M128 256a21.328 21.328 0 0 1-21.333-21.333 21.333 21.333 0 1 0-42.667 0 21.333 21.333 0 0 1-42.667 0 64 64 0 0 1 128 0A21.328 21.328 0 0 1 128 256zM128 384a21.328 21.328 0 0 1-21.333-21.333 21.333 21.333 0 1 0-42.667 0 21.333 21.333 0 0 1-42.667 0 64 64 0 0 1 128 0A21.328 21.328 0 0 1 128 384z" style="fill:#cdd4df"/><path d="M85.333 192a42.715 42.715 0 0 0-42.666 42.667v10.666a10.667 10.667 0 1 0 21.333 0v-10.666a21.333 21.333 0 0 1 21.333-21.334h.12l.048.001h.064l.049.001h.054l.007.001h.05l.01.001.049.001h.008l.046.001h.006l.05.002h.01l.05.001h.004l.048.002h.009l.049.002h.01l.05.002h.002l.048.002h.01l.048.002h.012l.045.002h.005l.05.003h.009l.05.003h.007l.048.002h.004l.05.003h.01l.049.004h.006l.047.003h.007l.049.003h.01l.05.004h.004l.046.003h.01l.048.004h.01l.049.004h.003l.049.004h.008l.049.005h.01l.044.004h.006l.048.004.012.001.047.004.008.001.047.004h.005l.049.005h.01l.048.005.008.001.045.004.007.001.049.005h.008l.101.01.008.002.049.005h.008l.05.006h.002l.05.006h.007l.049.006.008.001.1.012.01.001.047.006.009.001.044.006h.007l.048.007h.008l.05.007h.006l.046.007h.006l.048.007.01.001.049.007h.003l.048.007.006.001.049.007.01.001.048.007h.002l.048.008h.008l.048.008.007.001.1.016.009.001.048.008h.007l.046.008.005.001.048.008.009.001.047.008.01.002.043.007.006.001.048.008.009.002.05.009.05.009h.005l.05.01h.006l.05.01.05.009.006.001.048.01h.008l.1.02h.006l.05.01.004.001.101.02.006.002.05.01h.002l.05.01.003.001.048.01.01.002.047.01.004.001.046.01.007.001.048.011.006.001.05.011h.002l.048.011.005.002.048.01.007.002.098.022.007.002.048.011.006.002.048.011h.002l.048.012.008.002.047.011.007.002.047.011h.002l.047.012.009.003.048.012h.002l.046.012.007.002.047.011.007.002.048.013h.003l.046.012.007.002.047.013.007.002.097.026h.005l.049.014.005.001.048.014h.001l.048.013.007.002.048.014h.003l.098.028.007.002.049.014h.002l.047.015h.005l.046.015.008.002.047.014h.003l.045.014.006.002.047.014.007.002.095.03.006.001.048.015.003.001.098.031.006.002.046.015.007.002.096.03.005.002.048.016h.002l.047.016.004.001.046.016.007.002.046.016h.004l.045.016.005.002.046.015.008.003.094.033.005.001.047.017.004.001.096.034.004.002.048.017.004.001.096.035.004.002.048.017h.002l.048.019h.001l.048.018.004.002.048.017h.001l.097.038.005.002.094.036.005.002.048.018.099.04h.001l.049.02h.001l.096.039.004.001.146.06h.002l.244.104h.001l.047.02.004.002.095.042h.001l.048.021.002.001.094.042.003.001.144.065.145.067.096.046.192.091.002.001.093.046h.002l.142.07v.001c.047.023.095.047.14.071l.004.001.093.048.046.024h.002l.093.05.047.024.091.049.004.002.045.024.093.05.002.001.137.076h.002l.09.051.002.001.045.025.002.001.136.078h.002l.089.052.003.002.044.026h.001l.09.053h.002l.044.027h.001l.045.027.043.026.004.003.133.08.002.001.044.027.043.027.003.002.042.026.004.002.085.053.004.003.042.026.003.002.043.027.043.027.003.003.042.026.003.002.085.055.004.002.085.056.002.001.042.028.002.002.087.057.042.028.005.003.084.057h.001l.043.03.086.059.003.002.041.028.002.001.042.03.04.027.007.005.04.028h.001l.04.029.003.002.04.029.004.002.081.058.005.003.039.028.005.004.079.057.005.004.038.028.006.005.038.027.002.001.038.029.006.004.038.028.006.005.038.028.039.029.007.006.036.027.007.005.032.024.008.006.035.027.009.007.036.027.005.004.033.026.007.005.035.027.01.008.034.026.006.005.032.025.009.007.036.028.007.005.032.026.007.005.034.027.009.007.034.027.009.007.03.025.006.005.035.028.01.007.034.028.008.006.029.024.008.007.034.028.009.007.034.028.006.005.033.027.006.005.035.029.008.007.035.03h.001l.035.029.008.007.034.029.007.005.035.03.002.001.035.03.008.007.034.029.008.007.031.026.005.005.034.03.008.006.034.03.006.005.03.026.009.007.032.03.009.007.033.029.008.006.027.025.01.008.03.028.012.01.031.028.006.005.029.026.01.009.032.029.008.007.033.03.002.002.032.03.01.008.031.029.01.008.027.026.007.006.031.029.011.01.031.029.007.007.028.026.008.007.032.03.009.008.03.03.01.009.025.023.01.01.03.029.01.009.03.028.01.01.023.022.012.011.029.029.01.01.027.026.01.01.027.026.01.01.03.028.01.01.027.027.005.005.03.03.01.01.03.03.008.008.026.026.01.009.028.029.011.011.029.029.01.01.022.023.01.01.029.029.012.013.025.025.014.014.02.02.013.014.026.027.014.015.016.017.023.024.016.017.014.014.026.027.015.016.016.017.02.022.018.019.016.016.023.025.015.016.017.018.017.019.021.022.014.016.018.019.021.023.015.016.02.021.02.022.014.015.022.025.015.016.016.018.019.02.02.022.015.017.015.017.023.026.014.016.015.017.023.025.018.02.009.01.028.033.01.012.018.02.015.016.023.027.012.013.025.03.014.015.015.018.014.017.025.029.01.01.032.038.005.006.019.022.009.01.027.033.011.013.032.038.005.006.02.022.005.008.033.039.006.007.056.068.009.01.032.04.004.004.058.071.004.005.035.043.004.005.018.023.004.005.035.043.004.006.097.121.002.002.058.075.038.049.002.003a21.272 21.272 0 0 1 3.603 7.027 10.667 10.667 0 1 0 20.463-6.03A42.905 42.905 0 0 0 85.333 192z" style="fill:#7d8fac"/><circle cx="53.333" cy="245.333" r="10.667" style="fill:#435e88"/><path d="M85.333 64a42.715 42.715 0 0 0-42.666 42.667v10.666a10.667 10.667 0 1 0 21.333 0v-10.666a21.333 21.333 0 0 1 21.333-21.334h.12l.048.001h.064l.049.001h.054l.007.001h.05l.01.001.049.001h.008l.046.001h.006l.05.002h.01l.05.001h.004l.048.002h.009l.049.002h.01l.05.002h.002l.048.002h.01l.048.002h.012l.045.002h.005l.05.003h.009l.05.003h.007l.048.002h.004l.05.003h.01l.049.004h.006l.047.003h.007l.049.003h.01l.05.004h.004l.046.003.01.001.048.003.01.001.049.004h.003l.049.003h.008l.049.005h.01l.044.004h.006l.048.004.012.001.047.004.008.001.047.004h.005l.049.005h.01l.048.005.008.001.045.004.007.001.049.005h.008l.101.011h.008l.049.006h.008l.05.006h.002l.05.006h.007l.049.006.008.001.1.012.01.001.047.006.009.001.044.006h.007l.048.007h.008l.05.007h.006l.046.007h.006l.048.007.01.001.049.007h.003l.048.007.006.001.049.007.01.002.048.007h.002l.048.007.008.001.048.007.007.001.1.016.009.001.048.008h.007l.046.008.005.001.048.008.009.002.047.007.01.002.043.007.006.001.048.009.009.001.05.009.05.009h.005l.05.01h.006l.05.01.05.009.006.001.048.01h.008l.1.02h.006l.05.01.004.001.101.02.006.002.05.01h.002l.05.01.003.001.048.01.01.002.047.01.004.001.046.01.007.001.048.01.006.002.05.011h.002l.048.011.005.002.048.01.007.002.098.022.007.002.048.011.006.002.048.011h.002l.048.012.008.002.047.011.007.002.047.011h.002l.047.012.009.003.048.012h.002l.046.012.007.001.047.012.007.002.048.013h.003l.046.012.007.002.047.013.007.002.097.026h.005l.049.014.005.001.048.014h.001l.048.013.007.002.048.014h.003l.098.028.007.002.049.014h.002l.047.014.005.002.046.013.008.003.047.014h.003l.045.014.006.002.047.014.007.002.095.03.006.001.048.015.003.001.098.031.006.002.046.015.007.002.096.03.005.002.048.016h.002l.047.016.004.001.046.016.007.002.046.016h.004l.045.016.005.002.046.015.008.003.094.032.005.002.047.017.004.001.096.034.004.002.048.017.004.001.096.035.004.002.048.017h.002l.048.019h.001l.048.018.004.001.048.018h.001l.097.038.005.001.094.037.005.002.048.018.099.04h.001l.049.02h.001l.096.039.004.001.146.06h.002l.244.104h.001l.047.02.004.002.095.042h.001l.048.021.002.001.094.042.003.001.144.065.145.067.096.045.192.092.002.001.093.046h.002l.142.07.14.072.004.001.093.048.046.024h.002l.093.05.047.024.091.049.004.002.045.024.093.05.002.001.137.075.002.002.09.05.002.001.045.025h.002l.136.079h.002l.089.052.003.002.044.025h.001l.09.053.002.002.044.026h.001l.045.027.043.026.004.002.133.08.002.002.044.027.043.027.003.001.042.027.004.002.085.053.004.003.042.026.003.002.043.027.043.027.003.003.042.026.003.002.085.055.004.002.085.056.002.001.042.028.002.002.087.057.042.028.005.003.084.057h.001l.043.03.086.059.003.001.041.03h.002l.042.03.04.027.007.005.04.028h.001l.04.029.003.002.04.029.004.002.081.058.005.003.039.028.005.004.079.057.005.004.038.028.006.004.038.028.002.001.038.029.006.004.038.028.006.005.038.028.039.029.007.005.036.028.007.005.032.024.008.006.035.027.009.007.036.027.005.004.033.026.007.005.035.027.01.008.034.026.006.005.032.025.009.007.036.028.007.005.032.026.007.005.034.027.009.007.034.027.009.007.03.025.006.005.035.028.01.007.034.028.008.006.029.024.008.007.034.028.009.007.034.028.006.005.033.027.006.005.035.029.008.007.035.03h.001l.035.029.008.007.034.029.007.005.035.03.002.001.035.03.008.007.034.029.008.007.031.026.005.005.034.03.008.006.034.03.006.005.03.026.009.007.032.03.009.007.033.029.008.006.027.025.01.008.03.028.012.01.031.028.006.005.029.026.01.009.032.029.008.007.033.03.002.002.032.03.01.008.031.029.01.008.027.026.007.006.031.028.011.011.031.029.007.007.028.026.008.007.032.03.009.008.03.03.01.009.025.023.01.01.03.029.01.009.03.028.01.01.023.022.012.011.029.029.01.01.027.026.01.01.027.026.01.01.03.028.01.01.027.027.005.005.03.03.01.01.03.03.008.008.026.026.01.009.028.029.011.011.029.029.01.01.022.023.01.01.029.029.012.013.025.025.014.014.02.02.013.014.026.027.014.015.016.017.023.024.016.017.014.014.026.027.015.016.016.017.02.022.018.019.016.016.023.025.015.016.017.018.017.019.021.022.014.016.018.018.021.024.015.016.02.021.02.022.014.015.022.025.015.016.016.018.019.02.02.022.015.017.015.017.023.026.014.016.015.017.023.025.018.02.009.01.028.033.01.012.018.02.015.016.023.027.012.013.025.03.014.015.015.018.014.016.025.03.01.01.032.038.005.006.019.022.009.01.027.033.011.013.032.038.005.006.02.022.005.008.033.039.006.007.056.067.009.011.032.04.004.004.058.071.004.005.035.043.004.005.018.023.004.005.035.043.004.006.097.121.002.002.058.075.038.049.002.002a21.272 21.272 0 0 1 3.603 7.028 10.667 10.667 0 1 0 20.463-6.03A42.905 42.905 0 0 0 85.333 64zM85.333 320a42.715 42.715 0 0 0-42.666 42.667v10.666a10.667 10.667 0 1 0 21.333 0v-10.666a21.333 21.333 0 0 1 21.333-21.334h.12l.048.001h.064l.049.001h.054l.007.001h.05l.01.001h.049l.008.001.046.001h.006l.05.002h.01l.05.001h.004l.048.002h.009l.049.002h.01l.05.002h.002l.048.002h.01l.048.002h.012l.045.002h.005l.05.003h.009l.05.003h.007l.048.002h.004l.05.003h.01l.049.004h.006l.047.003h.007l.049.003h.01l.05.004h.004l.046.003h.01l.048.004h.01l.049.004h.003l.049.004h.008l.049.005h.01l.044.004h.006l.048.004.012.001.047.004.008.001.047.004h.005l.049.005h.01l.048.005.008.001.045.004.007.001.049.005h.008l.101.01.008.002.049.005h.008l.05.006h.002l.05.006h.007l.049.006.008.001.1.012.01.001.047.006.009.001.044.006h.007l.048.007h.008l.05.007h.006l.046.007h.006l.048.007.01.001.049.007h.003l.048.007.006.001.049.007.01.001.048.007h.002l.048.008h.008l.048.008.007.001.1.016.009.001.048.008h.007l.046.008.005.001.048.008.009.001.047.008.01.002.043.007.006.001.048.008.009.002.05.009.05.009h.005l.05.01h.006l.05.01.05.009.006.001.048.01h.008l.1.02h.006l.05.01.004.001.101.02.006.002.05.01h.002l.05.01.003.001.048.01.01.002.047.01.004.001.046.01.007.001.048.01.006.002.05.011h.002l.048.011.005.001.048.011.007.002.098.022.007.002.048.011.006.002.048.01.002.001.048.012.008.002.047.01.007.003.047.011h.002l.047.012.009.002.048.012.002.001.046.012.007.001.047.012.007.002.048.013h.003l.046.012.007.002.047.012.007.002.097.026.005.002.049.013.005.001.048.013h.001l.048.014.007.002.048.013.003.001.098.028.007.002.049.014h.002l.047.014.005.002.046.013.008.003.047.014h.003l.045.014.006.002.047.014.007.002.095.03.006.001.048.015.003.001.098.03.006.002.046.015.007.002.096.031.005.002.048.016h.002l.047.016.004.001.046.016.007.002.046.016h.004l.045.016.005.002.046.015.008.003.094.032.005.002.047.017.004.001.096.034.004.002.048.017.004.001.096.035.004.001.048.018h.002l.048.019h.001l.048.018.004.001.048.018h.001l.097.038.005.001.094.037.005.002.048.018.099.04h.001l.049.02h.001l.096.039.004.001.146.06h.002l.244.104h.001l.047.02.004.002.095.042h.001l.048.021.002.001.094.042.003.001.144.065.145.067.096.045.192.092.002.001.093.046h.002l.142.07.14.072.004.001.093.048.046.024h.002l.093.05.047.024.091.049.004.002.045.024.093.05h.002l.137.076.002.002.09.05h.002l.045.026h.002l.136.079h.002l.089.052.003.002.044.025h.001l.09.053.002.002.044.026h.001l.045.027.043.026.004.002.133.08.002.002.044.027.043.027.003.001.042.027.004.002.085.053.004.003.042.026.003.002.043.027.043.027.003.003.042.026.003.002.085.055.004.002.085.056.002.001.042.028.002.002.087.057.042.028.005.003.084.057h.001l.043.03.086.058.003.002.041.03h.002l.042.03.04.027.007.005.04.028h.001l.04.029.003.002.04.029.004.002.081.058.005.003.039.028.005.004.079.057.005.004.038.028.006.004.038.028.002.001.038.029.006.004.038.028.006.005.038.028.039.029.007.006.036.027.007.005.032.024.008.006.035.027.009.007.036.027.005.004.033.026.007.005.035.027.01.008.034.026.006.005.032.025.009.007.036.028.007.005.032.026.007.005.034.027.009.007.034.027.009.007.03.025.006.005.035.028.01.007.034.028.008.006.029.024.008.007.034.028.009.007.034.028.006.005.033.027.006.005.035.029.008.007.035.03h.001l.035.029.008.007.034.029.007.005.035.03.002.001.035.03.008.007.034.029.008.007.031.026.005.005.034.03.008.006.034.03.006.005.03.026.009.007.032.03.009.007.033.029.008.006.027.025.01.008.03.028.012.01.031.028.006.005.029.026.01.009.032.029.008.007.033.03.002.002.032.03.01.008.031.029.01.008.027.026.007.006.031.028.011.011.031.029.007.007.028.026.008.007.032.03.009.008.03.03.01.009.025.023.01.01.03.029.01.009.03.028.01.01.023.022.012.011.029.029.01.01.027.026.01.01.027.026.01.01.03.028.01.01.027.027.005.005.03.03.01.01.03.03.008.008.026.026.01.009.028.029.011.011.029.029.01.01.022.023.01.01.029.029.012.013.025.025.014.014.02.02.013.014.026.027.014.015.016.017.023.024.016.017.014.014.026.027.015.016.016.017.02.022.018.019.016.016.023.025.015.016.017.018.017.019.021.022.014.016.018.019.021.023.015.016.02.021.02.022.014.015.022.025.015.016.016.018.019.02.02.022.015.017.015.017.023.026.014.016.015.017.023.025.018.02.009.01.028.033.01.012.018.02.015.016.023.027.012.013.025.03.014.015.015.018.014.017.025.029.01.01.032.038.005.006.019.022.009.01.027.033.011.013.032.038.005.006.02.022.005.008.033.039.006.007.056.068.009.01.032.04.004.004.058.071.004.005.035.043.004.005.018.023.004.005.035.043.004.006.097.121.002.002.058.075.038.049.002.003a21.272 21.272 0 0 1 3.603 7.027 10.667 10.667 0 1 0 20.463-6.03A42.905 42.905 0 0 0 85.333 320z" style="fill:#7d8fac"/><circle cx="53.333" cy="373.333" r="10.667" style="fill:#435e88"/><rect x="42.667" y="106.667" width="21.333" height="21.333" rx="10.667" ry="10.667" style="fill:#435e88"/><path d="M85.333 170.667h-.405l-.022.001h-.094l-.088.001h-.025l-.08.002H84.52l-.024.001-.089.001h-.008l-.085.002h-.02l-.09.001h-.016l-.078.002h-.02l-.089.002h-.02l-.079.002h-.015l-.088.003h-.023l-.088.003h-.01l-.083.002h-.022l-.09.003h-.013l-.083.003h-.016l-.09.003h-.018l-.084.003h-.01l-.093.004h-.018l-.09.004h-.002l-.09.003-.022.001-.09.004h-.008l-.085.003-.02.001-.089.004h-.017l-.077.004h-.02l-.088.005h-.02l-.08.005h-.014l-.087.004-.024.002-.086.004h-.014l-.079.005h-.021l-.088.005-.018.001-.078.005h-.018l-.089.006h-.019l-.08.005-.013.001-.089.006h-.02l-.085.006h-.01l-.085.006-.024.001-.09.006h-.006l-.085.006-.02.002-.087.005-.019.002-.076.005-.02.001-.086.006-.021.002-.081.006h-.01l-.088.007-.023.002-.087.006-.013.001-.079.006-.022.002-.086.007-.019.001-.076.007-.018.001-.086.007-.024.002-.076.006-.014.002-.087.007-.024.002-.083.007-.009.001-.084.007-.024.003-.087.007-.014.002-.076.007-.023.002-.086.008-.02.002-.073.007-.02.002-.085.008-.023.002-.078.008h-.013l-.084.01-.028.002-.081.008-.021.002-.07.007-.025.003-.084.009-.022.002-.072.008-.02.002-.083.009-.028.003-.07.008-.017.001-.084.01-.026.003-.086.01h-.006l-.082.01-.026.002-.082.01-.021.002-.069.008-.025.003-.082.01-.025.003-.069.008-.022.003-.083.01-.025.003-.076.01-.012.001-.085.01-.025.004-.083.01-.02.003-.07.009-.025.003-.084.01-.02.003-.07.01-.023.003-.081.01-.028.004-.068.01-.02.002-.08.011-.03.004-.078.01-.02.004-.068.01-.033.004-.076.01-.03.005-.058.008-.032.005-.077.01-.03.005-.06.009-.027.004-.078.011-.033.005-.061.01-.04.005-.06.01-.037.005-.062.01-.046.007-.05.007-.036.006-.073.011-.036.006-.053.008-.034.005-.074.012-.035.006-.057.009-.032.005-.071.012-.033.005-.068.011-.036.006-.057.01-.036.006-.074.012-.032.005-.052.009-.037.006-.072.013-.035.006-.051.008-.05.009-.058.01-.039.007-.051.009-.05.008-.054.01-.037.007-.058.01-.05.009-.05.009-.036.006-.071.013-.04.007-.045.009-.037.007-.07.013-.04.007-.05.01-.048.008-.058.011-.037.007-.053.01-.055.01-.044.01-.042.007-.066.013-.042.008-.045.009-.039.007-.07.014-.04.008-.042.008-.06.012-.048.01-.043.008-.04.009-.072.014-.035.007-.047.01-.041.008-.068.014-.036.007-.045.01-.065.013-.044.01-.041.008-.053.011-.055.012-.043.009-.043.009-.06.013-.044.01-.044.009-.039.008-.07.015-.037.008-.046.01-.046.01-.063.014-.036.008-.044.01-.066.014-.043.01-.037.008-.072.017-.038.008-.045.01-.035.009-.073.016-.037.008-.043.01-.044.01-.07.016-.03.008-.066.015-.045.01-.048.012-.03.007-.077.018-.033.008-.047.011-.038.01-.067.015-.038.01-.047.01-.033.009-.077.019-.03.007-.049.012-.044.01-.062.016-.038.009-.066.016-.04.01-.047.012-.032.008-.08.02-.029.008-.048.012-.03.007-.08.02-.03.008-.049.013-.017.004-.094.024-.026.007-.094.025-.016.004-.047.012-.035.01-.062.016-.046.012-.043.011-.038.01-.07.019-.035.01-.046.011-.035.01-.074.02-.03.008-.05.013-.018.005-.09.025-.029.008-.088.024-.02.006-.05.013-.027.008-.083.023-.027.008-.049.013-.027.008-.083.023-.026.007-.051.015-.005.001-.108.03-.018.006-.167.048-.015.004-.17.05-.009.002-.104.03-.015.005-.168.05-.015.004-.169.05-.012.005-.172.051-.007.003-.114.034-.002.001-.06.018h-.002a71.9 71.9 0 0 0-.475.149l-.009.003c-.098.03-.194.061-.293.093h-.001l-.173.056-.01.004-.17.055-.011.004-.17.056-.008.002-.107.036-.01.003c-.057.02-.116.04-.174.058l-.003.001-.176.06h-.001l-.474.164A64.195 64.195 0 0 0 37.757 191.9l-.002.002-.321.36-.009.01-.115.13-.007.009-.115.13-.009.01a6.74 6.74 0 0 0-.067.077l-.01.011-.038.043-.003.005-.075.085-.005.006-.112.13-.012.014-.108.126-.016.018-.06.07-.012.015-.033.038-.017.02-.058.067-.015.018-.032.039-.018.02-.053.063-.019.023-.031.036-.026.031-.043.052-.024.028-.04.049-.029.033-.028.034-.026.032-.037.043-.03.037-.028.033-.026.032-.042.05-.024.029-.029.036-.034.04-.033.04-.026.032-.024.03-.044.053-.024.03-.028.035-.034.041-.034.042-.023.028-.036.044-.024.03-.039.048-.018.022-.046.057-.02.025-.036.044-.017.022-.048.06-.017.021-.039.049-.013.017-.049.06-.018.022-.043.055-.01.014-.047.058-.018.023-.05.062-.007.01-.045.057-.014.018-.051.064-.01.012-.046.06-.01.012a4.606 4.606 0 0 0-.052.068l-.009.01-.05.067-.004.004a4.717 4.717 0 0 0-.053.068l-.01.014-.108.14-.009.01-.053.07-.005.006-.052.069-.004.004-.056.073-.004.006-.112.147-.004.005-.111.148-.005.006-.11.146-.006.008-.17.228q-1.267 1.71-2.422 3.505a10.667 10.667 0 0 0 17.954 11.523A42.579 42.579 0 0 1 85.333 192a10.667 10.667 0 1 0 0-21.333zM85.333 298.667h-.405l-.022.001h-.094l-.088.001h-.025l-.08.002H84.52l-.024.001-.089.001h-.008l-.085.002h-.02l-.09.001h-.016l-.078.002h-.02l-.089.002h-.02l-.079.002h-.015l-.088.003h-.023l-.088.003h-.01l-.083.002h-.022l-.09.003h-.013l-.083.003h-.016l-.09.003h-.018l-.084.003h-.01l-.093.004h-.018l-.09.004h-.002l-.09.003-.022.001-.09.004h-.008l-.085.003-.02.001-.089.004h-.017l-.077.004h-.02l-.088.005h-.02l-.08.005h-.014l-.087.004-.024.002-.086.004h-.014l-.079.005h-.021l-.088.005-.018.001-.078.005h-.018l-.089.006h-.019l-.08.005-.013.001-.089.006h-.02l-.085.006h-.01l-.085.006-.024.001-.09.006h-.006l-.085.006-.02.001-.087.006-.019.002-.076.005-.02.001-.086.006-.021.002-.081.006h-.01l-.088.007-.023.002-.087.006-.013.001-.079.006-.022.002-.086.007-.019.001-.076.007-.018.001-.086.007-.024.002-.076.006-.014.002-.087.007-.024.002-.083.007-.009.001-.084.007-.024.003-.087.007-.014.002-.076.007-.023.002-.086.008-.02.002-.073.007-.02.001-.085.009-.023.002-.078.008h-.013l-.084.01-.028.002-.081.008-.021.002-.07.007-.025.003-.084.009-.022.002-.072.008-.02.002-.083.009-.028.003-.07.008-.017.001-.084.01-.026.003-.086.01h-.006l-.082.01-.026.002-.082.01-.021.002-.069.008-.025.003-.082.01-.025.003-.069.008-.022.003-.083.01-.025.003-.076.01h-.012l-.085.011-.025.004-.083.01-.02.003-.07.009-.025.003-.084.01-.02.003-.07.01-.023.003-.081.01-.028.004-.068.01-.02.002-.08.011-.03.004-.078.01-.02.004-.068.01-.033.004-.076.01-.03.005-.058.008-.032.005-.077.01-.03.005-.06.009-.027.004-.078.011-.033.005-.061.01-.04.005-.06.01-.037.005-.062.01-.046.007-.05.007-.036.006-.073.011-.036.006-.053.008-.034.005-.074.012-.035.006-.057.009-.032.005-.071.012-.033.005-.068.011-.036.006-.057.01-.036.006-.074.012-.032.005-.052.009-.037.006-.072.012-.035.007-.051.008-.05.009-.058.01-.039.007-.051.009-.05.008-.054.01-.037.007-.058.01-.05.009-.05.009-.036.006-.071.013-.04.007-.045.009-.037.007-.07.013-.04.007-.05.01-.048.008-.058.011-.037.007-.053.01-.055.01-.044.01-.042.007-.066.013-.042.008-.045.009-.039.007-.07.014-.04.008-.042.008-.06.012-.048.01-.043.008-.04.009-.072.014-.035.007-.047.01-.041.008-.068.014-.036.007-.045.01-.065.013-.044.01-.041.008-.053.011-.055.012-.043.009-.043.009-.06.013-.044.01-.044.009-.039.008-.07.015-.037.008-.046.01-.046.01-.063.014-.036.008-.044.01-.066.014-.043.01-.037.008-.072.017-.038.008-.045.01-.035.008-.073.017-.037.008-.043.01-.044.01-.07.016-.03.008-.066.015-.045.01-.048.012-.03.007-.077.018-.033.008-.047.011-.038.01-.067.015-.038.01-.047.01-.033.009-.077.019-.03.007-.049.012-.044.01-.062.016-.038.009-.066.016-.04.01-.047.012-.032.008-.08.02-.029.008-.048.012-.03.007-.08.02-.03.008-.049.013-.017.004-.094.024-.026.007-.094.025-.016.004-.047.012-.035.01-.062.016-.046.012-.043.011-.038.01-.07.019-.035.01-.046.011-.035.01-.074.02-.03.008-.05.013-.018.005-.09.025-.029.008-.088.024-.02.006-.05.013-.027.008-.083.023-.027.008-.049.013-.027.008-.083.023-.026.007-.051.015-.005.001-.108.03-.018.006-.167.048-.015.004-.17.05-.009.002-.104.03-.015.005-.168.05-.015.004-.169.05-.012.005-.172.051-.007.003-.114.034-.002.001-.06.018h-.002a71.9 71.9 0 0 0-.475.149l-.009.003c-.098.03-.194.061-.293.093h-.001l-.173.056-.01.004-.17.055-.011.004-.17.056-.008.002-.107.036-.01.003c-.057.02-.116.04-.174.058l-.003.001-.176.06h-.001l-.474.164A64.195 64.195 0 0 0 37.757 319.9l-.002.002-.321.36-.009.01-.115.13-.007.009-.115.13-.009.01a6.74 6.74 0 0 0-.067.077l-.01.011-.038.043-.003.005-.075.085-.005.006-.112.13-.012.014-.108.126-.016.018-.06.07-.012.015-.033.038-.017.02-.058.067-.015.018-.032.039-.018.02-.053.063-.019.023-.031.036-.026.031-.043.052-.024.028-.04.049-.029.033-.028.034-.026.032-.037.043-.03.037-.028.033-.026.032-.042.05-.024.029-.029.036-.034.04-.033.04-.026.032-.024.03-.044.053-.024.03-.028.035-.034.041-.034.042-.023.028-.036.044-.024.03-.039.048-.018.022-.046.057-.02.025-.036.044-.017.022-.048.06-.017.021-.039.049-.013.017-.049.06-.018.022-.043.055-.01.014-.047.058-.018.023-.05.062-.007.01-.045.057-.014.018-.051.064-.01.012-.046.06-.01.012a4.606 4.606 0 0 0-.052.068l-.009.01-.05.067-.004.004a4.717 4.717 0 0 0-.053.068l-.01.014-.108.14-.009.01-.053.07-.005.006-.052.069-.004.004-.056.073-.004.006-.112.147-.004.005-.111.148-.005.006-.11.146-.006.008-.17.228q-1.267 1.71-2.422 3.505a10.667 10.667 0 0 0 17.954 11.523A42.579 42.579 0 0 1 85.333 320a10.667 10.667 0 1 0 0-21.333z" style="fill:#eff2ff"/></g></svg>